<svg width="48" height="48" viewBox="0 0 48 48" fill="none" xmlns="http://www.w3.org/2000/svg">
<rect width="48" height="48" rx="24" fill="#FFE0EB"/>
<path d="M24.1829 22.7087C24.0686 22.6972 23.9315 22.6972 23.8058 22.7087C21.0858 22.6172 18.9258 20.3887 18.9258 17.6458C18.9258 14.8458 21.1886 12.5715 24.0001 12.5715C26.8001 12.5715 29.0744 14.8458 29.0744 17.6458C29.0629 20.3887 26.9029 22.6172 24.1829 22.7087Z" stroke="#FF82AC" stroke-width="2.57143" stroke-linecap="round" stroke-linejoin="round"/>
<path d="M18.4688 26.9257C15.7031 28.7772 15.7031 31.7943 18.4688 33.6343C21.6117 35.7372 26.766 35.7372 29.9088 33.6343C32.6745 31.7829 32.6745 28.7657 29.9088 26.9257C26.7774 24.8343 21.6231 24.8343 18.4688 26.9257Z" stroke="#FF82AC" stroke-width="2.57143" stroke-linecap="round" stroke-linejoin="round"/>
</svg>
