<svg width="24" height="25" viewBox="0 0 24 25" fill="none" xmlns="http://www.w3.org/2000/svg">
<path d="M3.16992 7.83398L11.9999 12.944L20.7699 7.86395" stroke="white" stroke-width="1.5" stroke-linecap="round" stroke-linejoin="round"/>
<path d="M12 22.004V12.934" stroke="white" stroke-width="1.5" stroke-linecap="round" stroke-linejoin="round"/>
<path d="M9.92963 2.87392L4.58963 5.84395C3.37963 6.51395 2.38965 8.19393 2.38965 9.57393V15.224C2.38965 16.604 3.37963 18.2839 4.58963 18.9539L9.92963 21.924C11.0696 22.554 12.9396 22.554 14.0796 21.924L19.4196 18.9539C20.6296 18.2839 21.6196 16.604 21.6196 15.224V9.57393C21.6196 8.19393 20.6296 6.51395 19.4196 5.84395L14.0796 2.87392C12.9296 2.23392 11.0696 2.23392 9.92963 2.87392Z" stroke="white" stroke-width="1.5" stroke-linecap="round" stroke-linejoin="round"/>
<path d="M16.9998 13.6339V9.97394L7.50977 4.4939" stroke="white" stroke-width="1.5" stroke-linecap="round" stroke-linejoin="round"/>
</svg>
