<svg width="20" height="21" viewBox="0 0 20 21" fill="none" xmlns="http://www.w3.org/2000/svg">
<path d="M14.167 8.72746H15.8337C17.5003 8.72746 18.3337 7.89412 18.3337 6.22746V4.56079C18.3337 2.89412 17.5003 2.06079 15.8337 2.06079H14.167C12.5003 2.06079 11.667 2.89412 11.667 4.56079V6.22746C11.667 7.89412 12.5003 8.72746 14.167 8.72746Z" stroke="white" stroke-width="1.5" stroke-miterlimit="10" stroke-linecap="round" stroke-linejoin="round"/>
<path d="M4.16699 18.7275H5.83366C7.50033 18.7275 8.33366 17.8941 8.33366 16.2275V14.5608C8.33366 12.8941 7.50033 12.0608 5.83366 12.0608H4.16699C2.50033 12.0608 1.66699 12.8941 1.66699 14.5608V16.2275C1.66699 17.8941 2.50033 18.7275 4.16699 18.7275Z" stroke="white" stroke-width="1.5" stroke-miterlimit="10" stroke-linecap="round" stroke-linejoin="round"/>
<path d="M5.00033 8.72746C6.84127 8.72746 8.33366 7.23507 8.33366 5.39412C8.33366 3.55318 6.84127 2.06079 5.00033 2.06079C3.15938 2.06079 1.66699 3.55318 1.66699 5.39412C1.66699 7.23507 3.15938 8.72746 5.00033 8.72746Z" stroke="white" stroke-width="1.5" stroke-miterlimit="10" stroke-linecap="round" stroke-linejoin="round"/>
<path d="M15.0003 18.7275C16.8413 18.7275 18.3337 17.2351 18.3337 15.3941C18.3337 13.5532 16.8413 12.0608 15.0003 12.0608C13.1594 12.0608 11.667 13.5532 11.667 15.3941C11.667 17.2351 13.1594 18.7275 15.0003 18.7275Z" stroke="white" stroke-width="1.5" stroke-miterlimit="10" stroke-linecap="round" stroke-linejoin="round"/>
</svg>
