<svg width="24" height="25" viewBox="0 0 24 25" fill="none" xmlns="http://www.w3.org/2000/svg">
<path d="M9.30957 15.0939L10.8096 16.5939L14.8096 12.5939" stroke="white" stroke-width="1.5" stroke-linecap="round" stroke-linejoin="round"/>
<path d="M10 6.39392H14C16 6.39392 16 5.39392 16 4.39392C16 2.39392 15 2.39392 14 2.39392H10C9 2.39392 8 2.39392 8 4.39392C8 6.39392 9 6.39392 10 6.39392Z" stroke="white" stroke-width="1.5" stroke-miterlimit="10" stroke-linecap="round" stroke-linejoin="round"/>
<path d="M16 4.41394C19.33 4.59394 21 5.82394 21 10.3939V16.3939C21 20.3939 20 22.3939 15 22.3939H9C4 22.3939 3 20.3939 3 16.3939V10.3939C3 5.83394 4.67 4.59394 8 4.41394" stroke="white" stroke-width="1.5" stroke-miterlimit="10" stroke-linecap="round" stroke-linejoin="round"/>
</svg>
