<svg width="30" height="31" viewBox="0 0 30 31" fill="none" xmlns="http://www.w3.org/2000/svg">
<rect x="0.0810547" y="0.644043" width="29.8651" height="29.8651" rx="6.63668" fill="#FF7A00" fill-opacity="0.1"/>
<path d="M14.184 20.5541C14.184 20.5541 13.3545 20.5541 13.3545 19.7246C13.3545 18.895 14.184 16.4062 17.5024 16.4062C20.8207 16.4062 21.6503 18.895 21.6503 19.7246C21.6503 20.5541 20.8207 20.5541 20.8207 20.5541H14.184Z" fill="#F28F45"/>
<path d="M17.5024 15.5766C18.8769 15.5766 19.9911 14.4624 19.9911 13.0879C19.9911 11.7134 18.8769 10.5991 17.5024 10.5991C16.1279 10.5991 15.0136 11.7134 15.0136 13.0879C15.0136 14.4624 16.1279 15.5766 17.5024 15.5766Z" fill="#F28F45"/>
<path d="M12.7044 20.5541C12.5876 20.3185 12.5249 20.0391 12.5249 19.7246C12.5249 18.6001 13.0882 17.4437 14.1309 16.6385C13.6748 16.4926 13.143 16.4062 12.5249 16.4062C9.20654 16.4062 8.37695 18.895 8.37695 19.7246C8.37695 20.5541 9.20654 20.5541 9.20654 20.5541H12.7044Z" fill="#F28F45"/>
<path d="M12.1101 15.5766C13.2555 15.5766 14.184 14.6481 14.184 13.5027C14.184 12.3573 13.2555 11.4287 12.1101 11.4287C10.9647 11.4287 10.0361 12.3573 10.0361 13.5027C10.0361 14.6481 10.9647 15.5766 12.1101 15.5766Z" fill="#F28F45"/>
</svg>
