<svg width="112" height="112" viewBox="0 0 112 112" fill="none" xmlns="http://www.w3.org/2000/svg">
<rect x="8" y="8" width="96" height="96" rx="48" fill="#FEE4E2"/>
<rect x="8" y="8" width="96" height="96" rx="48" stroke="#FEF3F2" stroke-width="16"/>
<path d="M74 43.96C67.34 43.3 60.64 42.96 53.96 42.96C50 42.96 46.04 43.16 42.08 43.56L38 43.96" stroke="#FE0C0C" stroke-width="3" stroke-linecap="round" stroke-linejoin="round"/>
<path d="M49 41.94L49.44 39.32C49.76 37.42 50 36 53.38 36H58.62C62 36 62.26 37.5 62.56 39.34L63 41.94" stroke="#FE0C0C" stroke-width="3" stroke-linecap="round" stroke-linejoin="round"/>
<path d="M69.7001 50.28L68.4001 70.42C68.1801 73.56 68 76 62.42 76H49.58C44 76 43.82 73.56 43.6 70.42L42.3 50.28" stroke="#FE0C0C" stroke-width="3" stroke-linecap="round" stroke-linejoin="round"/>
<path d="M52.6599 65H59.3199" stroke="#FE0C0C" stroke-width="3" stroke-linecap="round" stroke-linejoin="round"/>
<path d="M51 57H61" stroke="#FE0C0C" stroke-width="3" stroke-linecap="round" stroke-linejoin="round"/>
</svg>
