<svg width="24" height="25" viewBox="0 0 24 25" fill="none" xmlns="http://www.w3.org/2000/svg">
<path d="M15 23.1439H9C3.57 23.1439 1.25 20.8239 1.25 15.3939V9.39392C1.25 3.96392 3.57 1.64392 9 1.64392H14C14.41 1.64392 14.75 1.98392 14.75 2.39392C14.75 2.80392 14.41 3.14392 14 3.14392H9C4.39 3.14392 2.75 4.78392 2.75 9.39392V15.3939C2.75 20.0039 4.39 21.6439 9 21.6439H15C19.61 21.6439 21.25 20.0039 21.25 15.3939V10.3939C21.25 9.98392 21.59 9.64392 22 9.64392C22.41 9.64392 22.75 9.98392 22.75 10.3939V15.3939C22.75 20.8239 20.43 23.1439 15 23.1439Z" fill="white" style="fill:white;fill-opacity:1;"/>
<path d="M22 11.1439H18C14.58 11.1439 13.25 9.81391 13.25 6.39391V2.39391C13.25 2.09391 13.43 1.81391 13.71 1.70391C13.99 1.58391 14.31 1.65391 14.53 1.86391L22.53 9.86391C22.74 10.0739 22.81 10.4039 22.69 10.6839C22.57 10.9639 22.3 11.1439 22 11.1439ZM14.75 4.20391V6.39391C14.75 8.97391 15.42 9.64391 18 9.64391H20.19L14.75 4.20391Z" fill="white" style="fill:white;fill-opacity:1;"/>
<path d="M13 14.1439H7C6.59 14.1439 6.25 13.8039 6.25 13.3939C6.25 12.9839 6.59 12.6439 7 12.6439H13C13.41 12.6439 13.75 12.9839 13.75 13.3939C13.75 13.8039 13.41 14.1439 13 14.1439Z" fill="white" style="fill:white;fill-opacity:1;"/>
<path d="M11 18.1439H7C6.59 18.1439 6.25 17.8039 6.25 17.3939C6.25 16.9839 6.59 16.6439 7 16.6439H11C11.41 16.6439 11.75 16.9839 11.75 17.3939C11.75 17.8039 11.41 18.1439 11 18.1439Z" fill="white" style="fill:white;fill-opacity:1;"/>
</svg>
