<svg width="25" height="24" viewBox="0 0 25 24" fill="none" xmlns="http://www.w3.org/2000/svg">
<path d="M21.5 22H3.5C3.09 22 2.75 21.66 2.75 21.25C2.75 20.84 3.09 20.5 3.5 20.5H21.5C21.91 20.5 22.25 20.84 22.25 21.25C22.25 21.66 21.91 22 21.5 22Z" fill="#1C1C1C"/>
<path d="M19.5196 3.47991C17.5796 1.53991 15.6796 1.48991 13.6896 3.47991L12.4796 4.68991C12.3796 4.78991 12.3396 4.94991 12.3796 5.08991C13.1396 7.73991 15.2596 9.85991 17.9096 10.6199C17.9496 10.6299 17.9896 10.6399 18.0296 10.6399C18.1396 10.6399 18.2396 10.5999 18.3196 10.5199L19.5196 9.30991C20.5096 8.32991 20.9896 7.37991 20.9896 6.41991C20.9996 5.42991 20.5196 4.46991 19.5196 3.47991Z" fill="#1C1C1C"/>
<path d="M16.1103 11.53C15.8203 11.39 15.5403 11.25 15.2703 11.09C15.0503 10.96 14.8403 10.82 14.6303 10.67C14.4603 10.56 14.2603 10.4 14.0703 10.24C14.0503 10.23 13.9803 10.17 13.9003 10.09C13.5703 9.81005 13.2003 9.45005 12.8703 9.05005C12.8403 9.03005 12.7903 8.96005 12.7203 8.87005C12.6203 8.75005 12.4503 8.55005 12.3003 8.32005C12.1803 8.17005 12.0403 7.95005 11.9103 7.73005C11.7503 7.46005 11.6103 7.19005 11.4703 6.91005C11.4491 6.86465 11.4286 6.81949 11.4088 6.77458C11.2612 6.44127 10.8265 6.34382 10.5688 6.60158L4.84032 12.33C4.71032 12.46 4.59032 12.71 4.56032 12.88L4.02032 16.71C3.92032 17.39 4.11032 18.03 4.53032 18.46C4.89032 18.81 5.39032 19 5.93032 19C6.05032 19 6.17032 18.99 6.29032 18.97L10.1303 18.43C10.3103 18.4 10.5603 18.28 10.6803 18.15L16.4016 12.4287C16.6612 12.1692 16.5633 11.7237 16.2257 11.5797C16.1877 11.5634 16.1492 11.5469 16.1103 11.53Z" fill="#1C1C1C"/>
</svg>
