<svg width="16" height="17" viewBox="0 0 16 17" fill="none" xmlns="http://www.w3.org/2000/svg">
<path fill-rule="evenodd" clip-rule="evenodd" d="M2.00016 9.8335C2.36835 9.8335 2.66683 10.132 2.66683 10.5002V13.1668C2.66683 13.3436 2.73707 13.5132 2.86209 13.6382C2.98712 13.7633 3.15669 13.8335 3.3335 13.8335H12.6668C12.8436 13.8335 13.0132 13.7633 13.1382 13.6382C13.2633 13.5132 13.3335 13.3436 13.3335 13.1668V10.5002C13.3335 10.132 13.632 9.8335 14.0002 9.8335C14.3684 9.8335 14.6668 10.132 14.6668 10.5002V13.1668C14.6668 13.6973 14.4561 14.206 14.081 14.581C13.706 14.9561 13.1973 15.1668 12.6668 15.1668H3.3335C2.80306 15.1668 2.29435 14.9561 1.91928 14.581C1.54421 14.206 1.3335 13.6973 1.3335 13.1668V10.5002C1.3335 10.132 1.63197 9.8335 2.00016 9.8335Z" fill="#71839B"/>
<path fill-rule="evenodd" clip-rule="evenodd" d="M4.19526 6.69526C4.45561 6.43491 4.87772 6.43491 5.13807 6.69526L8 9.55719L10.8619 6.69526C11.1223 6.43491 11.5444 6.43491 11.8047 6.69526C12.0651 6.95561 12.0651 7.37772 11.8047 7.63807L8.4714 10.9714C8.21106 11.2318 7.78894 11.2318 7.5286 10.9714L4.19526 7.63807C3.93491 7.37772 3.93491 6.95561 4.19526 6.69526Z" fill="#71839B"/>
<path fill-rule="evenodd" clip-rule="evenodd" d="M8.00016 1.8335C8.36835 1.8335 8.66683 2.13197 8.66683 2.50016V10.5002C8.66683 10.8684 8.36835 11.1668 8.00016 11.1668C7.63197 11.1668 7.3335 10.8684 7.3335 10.5002V2.50016C7.3335 2.13197 7.63197 1.8335 8.00016 1.8335Z" fill="#71839B"/>
</svg>
