<svg width="25" height="25" viewBox="0 0 25 25" fill="none" xmlns="http://www.w3.org/2000/svg">
<path d="M22.6133 23.2852H23.6133V22.2852V12.2852C23.6133 6.21002 18.6884 1.28516 12.6133 1.28516C6.53815 1.28516 1.61328 6.21002 1.61328 12.2852V22.2852V23.2852H2.61328H22.6133Z" fill="#E3F4E1"/>
<path d="M22.6133 23.2852H23.6133V22.2852V12.2852C23.6133 6.21002 18.6884 1.28516 12.6133 1.28516C6.53815 1.28516 1.61328 6.21002 1.61328 12.2852V22.2852V23.2852H2.61328H22.6133Z" stroke="white" stroke-width="2"/>
<path fill-rule="evenodd" clip-rule="evenodd" d="M12.6134 7.61914C15.1371 7.61914 17.1928 9.62233 17.2774 12.1254L17.2801 12.2858V12.9525C17.2801 13.3207 16.9816 13.6191 16.6134 13.6191C16.2716 13.6191 15.9898 13.3618 15.9513 13.0302L15.9468 12.9525V12.2858C15.9468 10.4449 14.4544 8.95247 12.6134 8.95247C10.8209 8.95247 9.3589 10.3673 9.28319 12.1412L9.28011 12.2858V12.9525C9.28011 13.3207 8.98163 13.6191 8.61344 13.6191C8.27155 13.6191 7.98977 13.3618 7.95126 13.0302L7.94678 12.9525V12.2858C7.94678 9.70848 10.0361 7.61914 12.6134 7.61914Z" fill="#289BF7"/>
<path fill-rule="evenodd" clip-rule="evenodd" d="M6.61328 14.2858C6.61328 12.813 7.80719 11.6191 9.27995 11.6191H10.5348C10.5782 11.6191 10.6133 11.6543 10.6133 11.6976V16.874C10.6133 16.9174 10.5782 16.9525 10.5348 16.9525H9.27995C7.80719 16.9525 6.61328 15.7586 6.61328 14.2858ZM14.6133 11.6976C14.6133 11.6543 14.6484 11.6191 14.6917 11.6191H15.9466C17.4194 11.6191 18.6133 12.813 18.6133 14.2858C18.6133 15.7586 17.4194 16.9525 15.9466 16.9525H14.6917C14.6484 16.9525 14.6133 16.9174 14.6133 16.874V16.2858H13.2799C12.9118 16.2858 12.6133 15.9873 12.6133 15.6191C12.6133 15.251 12.9118 14.9525 13.2799 14.9525H14.6133V11.6976Z" fill="#DF1525"/>
</svg>
