<svg width="45" height="44" viewBox="0 0 45 44" fill="none" xmlns="http://www.w3.org/2000/svg">
<path fill-rule="evenodd" clip-rule="evenodd" d="M13.0902 9.70637C13.9872 9.10701 15.0418 8.78711 16.1206 8.78711C16.8132 8.78711 17.3747 9.34859 17.3747 10.0412C17.3747 10.7338 16.8132 11.2953 16.1206 11.2953C15.5378 11.2953 14.9682 11.4681 14.4837 11.7919C13.9992 12.1156 13.6215 12.5758 13.3985 13.1141C13.1755 13.6525 13.1172 14.2449 13.2309 14.8165C13.3445 15.388 13.6251 15.913 14.0372 16.325C14.4492 16.7371 14.9742 17.0177 15.5458 17.1314C16.1173 17.2451 16.7097 17.1867 17.2481 16.9637C17.7864 16.7407 18.2466 16.3631 18.5703 15.8785C18.8941 15.394 19.0669 14.8244 19.0669 14.2417C19.0669 13.549 19.6284 12.9875 20.321 12.9875C21.0136 12.9875 21.5751 13.549 21.5751 14.2417C21.5751 15.3205 21.2552 16.375 20.6559 17.272C20.0565 18.169 19.2046 18.8682 18.2079 19.281C17.2112 19.6938 16.1145 19.8019 15.0564 19.5914C13.9984 19.3809 13.0264 18.8614 12.2636 18.0986C11.5008 17.3358 10.9813 16.3639 10.7708 15.3058C10.5604 14.2477 10.6684 13.151 11.0812 12.1543C11.4941 11.1576 12.1932 10.3057 13.0902 9.70637Z" fill="#8F8F8F"/>
<path fill-rule="evenodd" clip-rule="evenodd" d="M43.37 16.0605C44.0527 16.0605 44.6061 16.6255 44.6061 17.3223V27.8877C44.6061 33.2926 43.5606 37.4042 40.9017 40.1337C38.2411 42.865 34.2312 43.9393 28.9625 43.9393H16.6134C11.3462 43.9393 7.33649 42.8654 4.67546 40.1345C2.01606 37.4053 0.969727 33.2936 0.969727 27.8877V23.6397C0.969727 22.9428 1.52313 22.3779 2.20579 22.3779C2.88845 22.3779 3.44186 22.9428 3.44186 23.6397V27.8877C3.44186 33.0472 4.45563 36.3305 6.42817 38.3548C8.39909 40.3775 11.5931 41.4158 16.6134 41.4158H28.9625C33.9844 41.4158 37.1783 40.3771 39.1488 38.3543C41.1209 36.3298 42.134 33.0465 42.134 27.8877V17.3223C42.134 16.6255 42.6874 16.0605 43.37 16.0605Z" fill="#8F8F8F"/>
<path fill-rule="evenodd" clip-rule="evenodd" d="M4.7269 4.03034C7.42333 1.35514 11.4865 0.302734 16.8275 0.302734H25.1777C25.8662 0.302734 26.4243 0.856441 26.4243 1.53947C26.4243 2.2225 25.8662 2.77621 25.1777 2.77621H16.8275C11.7324 2.77621 8.48995 3.79493 6.48979 5.77935C4.48963 7.76377 3.46283 10.9807 3.46283 16.0357C3.46283 16.7187 2.90473 17.2724 2.21628 17.2724C1.52783 17.2724 0.969727 16.7187 0.969727 16.0357C0.969727 10.7367 2.03048 6.70554 4.7269 4.03034Z" fill="#8F8F8F"/>
<path fill-rule="evenodd" clip-rule="evenodd" d="M28.8477 7.5754C28.8477 6.90597 29.4286 6.36328 30.1451 6.36328H42.0956C42.8122 6.36328 43.3931 6.90597 43.3931 7.5754C43.3931 8.24484 42.8122 8.78752 42.0956 8.78752H30.1451C29.4286 8.78752 28.8477 8.24484 28.8477 7.5754Z" fill="#8F8F8F"/>
<path fill-rule="evenodd" clip-rule="evenodd" d="M36.1213 0.302734C36.7907 0.302734 37.3334 0.88363 37.3334 1.6002V13.5507C37.3334 14.2673 36.7907 14.8482 36.1213 14.8482C35.4519 14.8482 34.9092 14.2673 34.9092 13.5507V1.6002C34.9092 0.88363 35.4519 0.302734 36.1213 0.302734Z" fill="#8F8F8F"/>
<path fill-rule="evenodd" clip-rule="evenodd" d="M34.9691 24.1525L26.3905 31.5785L26.3677 31.5978C25.3248 32.4576 24.0162 32.9278 22.6656 32.9278C21.3151 32.9278 20.0065 32.4576 18.9636 31.5978C18.9523 31.5885 18.9413 31.579 18.9303 31.5694L18.2681 30.9831C17.7136 30.5356 17.0324 30.2742 16.3211 30.2362C15.6054 30.1979 14.8961 30.3878 14.2948 30.7785L4.11765 37.6667C3.54958 38.0511 2.77805 37.9013 2.39438 37.3321C2.01072 36.7628 2.1602 35.9896 2.72827 35.6051L12.9309 28.6997C13.975 28.0173 15.2086 27.6855 16.4533 27.752C17.6981 27.8185 18.8894 28.2801 19.8551 29.0699C19.8676 29.0802 19.88 29.0907 19.8921 29.1014L20.5563 29.6895C21.1524 30.1749 21.8972 30.4401 22.6656 30.4401C23.4362 30.4401 24.1831 30.1734 24.7799 29.6854L33.3585 22.2594L33.3813 22.2401C34.4243 21.3803 35.7328 20.9102 37.0834 20.9102C38.4339 20.9102 39.7425 21.3803 40.7855 22.2401L40.8083 22.2594L44.1761 25.175C44.6948 25.6241 44.752 26.4096 44.3039 26.9294C43.8558 27.4492 43.072 27.5066 42.5533 27.0575L39.1977 24.1525C38.6008 23.6645 37.854 23.3978 37.0834 23.3978C36.3128 23.3978 35.5659 23.6645 34.9691 24.1525Z" fill="#8F8F8F"/>
</svg>
