<svg width="23" height="23" viewBox="0 0 23 23" fill="none" xmlns="http://www.w3.org/2000/svg">
<path d="M4.5 13.7864C2.64864 14.6031 1.5 15.7412 1.5 17C1.5 19.4853 5.97715 21.5 11.5 21.5C17.0228 21.5 21.5 19.4853 21.5 17C21.5 15.7412 20.3514 14.6031 18.5 13.7864M17.5 7.5C17.5 11.5637 13 13.5 11.5 16.5C10 13.5 5.5 11.5637 5.5 7.5C5.5 4.18629 8.18629 1.5 11.5 1.5C14.8137 1.5 17.5 4.18629 17.5 7.5ZM12.5 7.5C12.5 8.05228 12.0523 8.5 11.5 8.5C10.9477 8.5 10.5 8.05228 10.5 7.5C10.5 6.94772 10.9477 6.5 11.5 6.5C12.0523 6.5 12.5 6.94772 12.5 7.5Z" stroke="#F28F45" stroke-width="1.5" stroke-linecap="round" stroke-linejoin="round"/>
</svg>
