<svg width="24" height="24" viewBox="0 0 24 24" fill="none" xmlns="http://www.w3.org/2000/svg">
<path d="M11.6801 15.3695C11.4901 15.3695 11.3001 15.2995 11.1501 15.1495C10.8601 14.8595 10.8601 14.3795 11.1501 14.0895L13.1801 12.0595L11.1501 10.0295C10.8601 9.73945 10.8601 9.25945 11.1501 8.96945C11.4401 8.67945 11.9201 8.67945 12.2101 8.96945L14.7701 11.5295C15.0601 11.8195 15.0601 12.2995 14.7701 12.5895L12.2101 15.1495C12.0701 15.2995 11.8701 15.3695 11.6801 15.3695Z" fill="#E63737"/>
<path d="M14.17 12.8105H4C3.59 12.8105 3.25 12.4705 3.25 12.0605C3.25 11.6505 3.59 11.3105 4 11.3105H14.17C14.58 11.3105 14.92 11.6505 14.92 12.0605C14.92 12.4705 14.58 12.8105 14.17 12.8105Z" fill="#E63737"/>
<path d="M12 20.75C11.59 20.75 11.25 20.41 11.25 20C11.25 19.59 11.59 19.25 12 19.25C16.27 19.25 19.25 16.27 19.25 12C19.25 7.73 16.27 4.75 12 4.75C11.59 4.75 11.25 4.41 11.25 4C11.25 3.59 11.59 3.25 12 3.25C17.15 3.25 20.75 6.85 20.75 12C20.75 17.15 17.15 20.75 12 20.75Z" fill="#E63737"/>
</svg>
