<svg width="23" height="23" viewBox="0 0 23 23" fill="none" xmlns="http://www.w3.org/2000/svg">
<g clip-path="url(#clip0_1997_37756)">
<path d="M10.0438 17.8776L13.4518 21.2809C13.6634 21.4925 13.9255 21.6465 14.2134 21.7283C14.5012 21.8101 14.8051 21.817 15.0963 21.7483C15.3875 21.6796 15.6563 21.5376 15.8773 21.3358C16.0982 21.134 16.2638 20.8791 16.3586 20.5953L21.9517 3.80011C22.055 3.49095 22.0701 3.15913 21.9954 2.84187C21.9206 2.52461 21.7589 2.23446 21.5284 2.00397C21.2979 1.77349 21.0078 1.61179 20.6905 1.53701C20.3732 1.46224 20.0414 1.47734 19.7323 1.58064L2.9371 7.17851C2.65418 7.27358 2.40016 7.43921 2.19906 7.65976C1.99795 7.88031 1.8564 8.14849 1.78777 8.43896C1.71913 8.72943 1.72569 9.03261 1.80682 9.31984C1.88795 9.60707 2.04097 9.86888 2.25143 10.0805L6.53261 14.3664L6.38735 19.7784L10.0438 17.8776Z" stroke="white" stroke-width="1.38836" stroke-linecap="round" stroke-linejoin="round"/>
<path d="M21.45 1.93164L6.53223 14.3675" stroke="white" stroke-width="1.38836" stroke-linecap="round" stroke-linejoin="round"/>
</g>
<defs>
<clipPath id="clip0_1997_37756">
<rect width="21.8667" height="21.8667" fill="white" transform="translate(0.956055 0.710938)"/>
</clipPath>
</defs>
</svg>
