<svg width="24" height="25" viewBox="0 0 24 25" fill="none" xmlns="http://www.w3.org/2000/svg">
<path d="M17.98 11.1839V15.1839C17.98 15.4439 17.97 15.6939 17.94 15.9339C17.71 18.6339 16.12 19.9739 13.19 19.9739H12.79C12.54 19.9739 12.3 20.0939 12.15 20.2939L10.95 21.8939C10.42 22.6039 9.56 22.6039 9.03 21.8939L7.82999 20.2939C7.69999 20.1239 7.41 19.9739 7.19 19.9739H6.79001C3.60001 19.9739 2 19.1839 2 15.1839V11.1839C2 8.25393 3.35001 6.66393 6.04001 6.43393C6.28001 6.40393 6.53001 6.39392 6.79001 6.39392H13.19C16.38 6.39392 17.98 7.99393 17.98 11.1839Z" stroke="white" stroke-width="1.5" stroke-miterlimit="10" stroke-linecap="round" stroke-linejoin="round"/>
<path d="M21.98 7.18393V11.1839C21.98 14.1239 20.63 15.7039 17.94 15.9339C17.97 15.6939 17.98 15.4439 17.98 15.1839V11.1839C17.98 7.99393 16.38 6.39392 13.19 6.39392H6.79004C6.53004 6.39392 6.28004 6.40393 6.04004 6.43393C6.27004 3.74393 7.86004 2.39392 10.79 2.39392H17.19C20.38 2.39392 21.98 3.99393 21.98 7.18393Z" stroke="white" stroke-width="1.5" stroke-miterlimit="10" stroke-linecap="round" stroke-linejoin="round"/>
<path d="M13.4955 13.6439H13.5045" stroke="white" stroke-width="2" stroke-linecap="round" stroke-linejoin="round"/>
<path d="M9.9955 13.6439H10.0045" stroke="white" stroke-width="2" stroke-linecap="round" stroke-linejoin="round"/>
<path d="M6.4955 13.6439H6.5045" stroke="white" stroke-width="2" stroke-linecap="round" stroke-linejoin="round"/>
</svg>
