<svg width="24" height="25" viewBox="0 0 24 25" fill="none" xmlns="http://www.w3.org/2000/svg">
<path d="M12.0196 3.30396C8.7096 3.30396 6.0196 5.99396 6.0196 9.30396V12.194C6.0196 12.804 5.7596 13.734 5.4496 14.254L4.2996 16.164C3.5896 17.344 4.0796 18.654 5.3796 19.094C9.6896 20.534 14.3396 20.534 18.6496 19.094C19.8596 18.694 20.3896 17.264 19.7296 16.164L18.5796 14.254C18.2796 13.734 18.0196 12.804 18.0196 12.194V9.30396C18.0196 6.00396 15.3196 3.30396 12.0196 3.30396Z" stroke="white" stroke-width="1.5" stroke-miterlimit="10" stroke-linecap="round"/>
<path d="M13.8699 3.59386C13.5599 3.50386 13.2399 3.43386 12.9099 3.39386C11.9499 3.27386 11.0299 3.34386 10.1699 3.59386C10.4599 2.85386 11.1799 2.33386 12.0199 2.33386C12.8599 2.33386 13.5799 2.85386 13.8699 3.59386Z" stroke="white" stroke-width="1.5" stroke-miterlimit="10" stroke-linecap="round" stroke-linejoin="round"/>
<path d="M15.0195 19.454C15.0195 21.104 13.6695 22.454 12.0195 22.454C11.1995 22.454 10.4395 22.114 9.89953 21.574C9.35953 21.034 9.01953 20.274 9.01953 19.454" stroke="white" stroke-width="1.5" stroke-miterlimit="10"/>
</svg>
