<svg width="22" height="27" viewBox="0 0 22 27" fill="none" xmlns="http://www.w3.org/2000/svg">
<path fill-rule="evenodd" clip-rule="evenodd" d="M12.3329 2.00033C12.3329 1.26395 11.736 0.666992 10.9996 0.666992C10.2632 0.666992 9.66626 1.26395 9.66626 2.00033V3.00033H8.92304C5.95627 3.00033 3.50081 5.30701 3.31561 8.26799L3.02094 12.9793C2.9086 14.7755 2.30555 16.5065 1.27746 17.9838C0.348556 19.3185 1.17552 21.1619 2.79009 21.3557L7.33293 21.9008V23.3337C7.33293 25.3587 8.97455 27.0003 10.9996 27.0003C13.0246 27.0003 14.6663 25.3587 14.6663 23.3337V21.9008L19.2091 21.3557C20.8237 21.1619 21.6506 19.3185 20.7217 17.9838C19.6936 16.5065 19.0906 14.7755 18.9782 12.9793L18.6836 8.26798C18.4984 5.30701 16.0429 3.00033 13.0761 3.00033H12.3329V2.00033ZM8.92304 5.00033C7.01237 5.00033 5.43098 6.48589 5.31171 8.39283L5.01704 13.1041C4.88185 15.2656 4.15618 17.3486 2.91905 19.1262C2.85191 19.2227 2.91168 19.3559 3.02838 19.3699L8.01193 19.968C9.99658 20.2061 12.0026 20.2061 13.9872 19.968L18.9708 19.3699C19.0875 19.3559 19.1473 19.2227 19.0801 19.1262C17.843 17.3486 17.1173 15.2656 16.9821 13.1041L16.6875 8.39283C16.5682 6.48589 14.9868 5.00033 13.0761 5.00033H8.92304ZM10.9996 25.0003C10.0791 25.0003 9.33293 24.2541 9.33293 23.3337V22.3337H12.6663V23.3337C12.6663 24.2541 11.9201 25.0003 10.9996 25.0003Z" fill="#4A5154"/>
</svg>
