<svg width="24" height="25" viewBox="0 0 24 25" fill="none" xmlns="http://www.w3.org/2000/svg">
<path d="M18.0001 7.55392C17.9401 7.54392 17.8701 7.54392 17.8101 7.55392C16.4301 7.50392 15.3301 6.37392 15.3301 4.97392C15.3301 3.54392 16.4801 2.39392 17.9101 2.39392C19.3401 2.39392 20.4901 3.55392 20.4901 4.97392C20.4801 6.37392 19.3801 7.50392 18.0001 7.55392Z" stroke="white" stroke-width="1.5" stroke-linecap="round" stroke-linejoin="round"/>
<path d="M16.9704 14.834C18.3404 15.064 19.8504 14.824 20.9104 14.114C22.3204 13.174 22.3204 11.634 20.9104 10.694C19.8404 9.98396 18.3104 9.74395 16.9404 9.98395" stroke="white" stroke-width="1.5" stroke-linecap="round" stroke-linejoin="round"/>
<path d="M5.97047 7.55392C6.03047 7.54392 6.10047 7.54392 6.16047 7.55392C7.54047 7.50392 8.64047 6.37392 8.64047 4.97392C8.64047 3.54392 7.49047 2.39392 6.06047 2.39392C4.63047 2.39392 3.48047 3.55392 3.48047 4.97392C3.49047 6.37392 4.59047 7.50392 5.97047 7.55392Z" stroke="white" stroke-width="1.5" stroke-linecap="round" stroke-linejoin="round"/>
<path d="M7.00043 14.834C5.63043 15.064 4.12043 14.824 3.06043 14.114C1.65043 13.174 1.65043 11.634 3.06043 10.694C4.13043 9.98396 5.66043 9.74395 7.03043 9.98395" stroke="white" stroke-width="1.5" stroke-linecap="round" stroke-linejoin="round"/>
<path d="M12.0001 15.0239C11.9401 15.0139 11.8701 15.0139 11.8101 15.0239C10.4301 14.9739 9.33008 13.8439 9.33008 12.4439C9.33008 11.0139 10.4801 9.86389 11.9101 9.86389C13.3401 9.86389 14.4901 11.0239 14.4901 12.4439C14.4801 13.8439 13.3801 14.9839 12.0001 15.0239Z" stroke="white" stroke-width="1.5" stroke-linecap="round" stroke-linejoin="round"/>
<path d="M9.08973 18.1739C7.67973 19.1139 7.67973 20.6539 9.08973 21.5939C10.6897 22.6639 13.3097 22.6639 14.9097 21.5939C16.3197 20.6539 16.3197 19.1139 14.9097 18.1739C13.3197 17.1139 10.6897 17.1139 9.08973 18.1739Z" stroke="white" stroke-width="1.5" stroke-linecap="round" stroke-linejoin="round"/>
</svg>
