<svg width="35" height="41" viewBox="0 0 35 41" fill="none" xmlns="http://www.w3.org/2000/svg">
<rect width="35" height="41" rx="4" fill="#D9D9D9"/>
<path d="M12.7234 19.68C12.7234 20.0533 12.6334 20.4033 12.4534 20.73C12.28 21.0567 12.0034 21.32 11.6234 21.52C11.25 21.72 10.7767 21.82 10.2034 21.82H9.03336V24.5H7.63336V17.52H10.2034C10.7434 17.52 11.2034 17.6133 11.5834 17.8C11.9634 17.9867 12.2467 18.2433 12.4334 18.57C12.6267 18.8967 12.7234 19.2667 12.7234 19.68ZM10.1434 20.69C10.53 20.69 10.8167 20.6033 11.0034 20.43C11.19 20.25 11.2834 20 11.2834 19.68C11.2834 19 10.9034 18.66 10.1434 18.66H9.03336V20.69H10.1434ZM19.6873 24.5H18.2873L15.1173 19.71V24.5H13.7173V17.51H15.1173L18.2873 22.31V17.51H19.6873V24.5ZM25.9309 19.62C25.7709 19.3267 25.5509 19.1033 25.2709 18.95C24.9909 18.7967 24.6642 18.72 24.2909 18.72C23.8775 18.72 23.5109 18.8133 23.1909 19C22.8709 19.1867 22.6209 19.4533 22.4409 19.8C22.2609 20.1467 22.1709 20.5467 22.1709 21C22.1709 21.4667 22.2609 21.8733 22.4409 22.22C22.6275 22.5667 22.8842 22.8333 23.2109 23.02C23.5375 23.2067 23.9175 23.3 24.3509 23.3C24.8842 23.3 25.3209 23.16 25.6609 22.88C26.0009 22.5933 26.2242 22.1967 26.3309 21.69H23.9309V20.62H27.7109V21.84C27.6175 22.3267 27.4175 22.7767 27.1109 23.19C26.8042 23.6033 26.4075 23.9367 25.9209 24.19C25.4409 24.4367 24.9009 24.56 24.3009 24.56C23.6275 24.56 23.0175 24.41 22.4709 24.11C21.9309 23.8033 21.5042 23.38 21.1909 22.84C20.8842 22.3 20.7309 21.6867 20.7309 21C20.7309 20.3133 20.8842 19.7 21.1909 19.16C21.5042 18.6133 21.9309 18.19 22.4709 17.89C23.0175 17.5833 23.6242 17.43 24.2909 17.43C25.0775 17.43 25.7609 17.6233 26.3409 18.01C26.9209 18.39 27.3209 18.9267 27.5409 19.62H25.9309Z" fill="#1C1C1C"/>
</svg>
