<svg width="17" height="16" viewBox="0 0 17 16" fill="none" xmlns="http://www.w3.org/2000/svg">
<path d="M5.33301 4.66634H11.6663V3.33301C11.6663 1.99967 11.1663 1.33301 9.66634 1.33301H7.33301C5.83301 1.33301 5.33301 1.99967 5.33301 3.33301V4.66634Z" stroke="white" stroke-miterlimit="10" stroke-linecap="round" stroke-linejoin="round"/>
<path d="M11.1663 10V12.6667C11.1663 14 10.4997 14.6667 9.16634 14.6667H7.83301C6.49967 14.6667 5.83301 14 5.83301 12.6667V10H11.1663Z" stroke="white" stroke-miterlimit="10" stroke-linecap="round" stroke-linejoin="round"/>
<path d="M14.5 6.66699V10.0003C14.5 11.3337 13.8333 12.0003 12.5 12.0003H11.1667V10.0003H5.83333V12.0003H4.5C3.16667 12.0003 2.5 11.3337 2.5 10.0003V6.66699C2.5 5.33366 3.16667 4.66699 4.5 4.66699H12.5C13.8333 4.66699 14.5 5.33366 14.5 6.66699Z" stroke="white" stroke-miterlimit="10" stroke-linecap="round" stroke-linejoin="round"/>
<path d="M11.8337 10H11.027H5.16699" stroke="white" stroke-miterlimit="10" stroke-linecap="round" stroke-linejoin="round"/>
<path d="M5.16699 7.33301H7.16699" stroke="white" stroke-miterlimit="10" stroke-linecap="round" stroke-linejoin="round"/>
</svg>
