<svg width="20" height="21" viewBox="0 0 20 21" fill="none" xmlns="http://www.w3.org/2000/svg">
<path d="M7.63314 9.45221C7.5498 9.44388 7.4498 9.44388 7.35814 9.45221C5.3748 9.38555 3.7998 7.76055 3.7998 5.76055C3.7998 3.71888 5.4498 2.06055 7.4998 2.06055C9.54147 2.06055 11.1998 3.71888 11.1998 5.76055C11.1915 7.76055 9.61647 9.38555 7.63314 9.45221Z" stroke="white" stroke-width="1.5" stroke-linecap="round" stroke-linejoin="round"/>
<path d="M13.6747 3.72729C15.2914 3.72729 16.5914 5.03563 16.5914 6.64396C16.5914 8.21896 15.3414 9.5023 13.7831 9.56063C13.7164 9.5523 13.6414 9.5523 13.5664 9.56063" stroke="white" stroke-width="1.5" stroke-linecap="round" stroke-linejoin="round"/>
<path d="M3.4666 12.5273C1.44993 13.8773 1.44993 16.0773 3.4666 17.419C5.75827 18.9523 9.5166 18.9523 11.8083 17.419C13.8249 16.069 13.8249 13.869 11.8083 12.5273C9.52494 11.0023 5.7666 11.0023 3.4666 12.5273Z" stroke="white" stroke-width="1.5" stroke-linecap="round" stroke-linejoin="round"/>
<path d="M15.2832 17.0605C15.8832 16.9355 16.4499 16.6939 16.9165 16.3355C18.2165 15.3605 18.2165 13.7522 16.9165 12.7772C16.4582 12.4272 15.8999 12.1939 15.3082 12.0605" stroke="white" stroke-width="1.5" stroke-linecap="round" stroke-linejoin="round"/>
</svg>
