<svg width="30" height="31" viewBox="0 0 30 31" fill="none" xmlns="http://www.w3.org/2000/svg">
<rect x="0.0878906" y="0.644043" width="29.8651" height="29.8651" rx="6.63668" fill="#FF7A00" fill-opacity="0.1"/>
<path d="M21.6571 15.5766C21.6571 15.5766 19.1684 11.0139 15.0205 11.0139C10.8725 11.0139 8.38379 15.5766 8.38379 15.5766C8.38379 15.5766 10.8725 20.1393 15.0205 20.1393C19.1684 20.1393 21.6571 15.5766 21.6571 15.5766ZM9.35664 15.5766C9.40387 15.5046 9.45772 15.4246 9.51806 15.3381C9.79587 14.9395 10.2058 14.4093 10.7333 13.8819C11.8025 12.8126 13.2623 11.8435 15.0205 11.8435C16.7787 11.8435 18.2384 12.8126 19.3077 13.8819C19.8351 14.4093 20.2451 14.9395 20.5229 15.3381C20.5832 15.4246 20.6371 15.5046 20.6843 15.5766C20.6371 15.6486 20.5832 15.7286 20.5229 15.8152C20.2451 16.2138 19.8351 16.7439 19.3077 17.2714C18.2384 18.3407 16.7787 19.3098 15.0205 19.3098C13.2623 19.3098 11.8025 18.3407 10.7333 17.2714C10.2058 16.7439 9.79587 16.2138 9.51806 15.8152C9.45772 15.7286 9.40387 15.6486 9.35664 15.5766Z" fill="#F28F45"/>
<path d="M15.0205 13.5027C13.875 13.5027 12.9465 14.4312 12.9465 15.5766C12.9465 16.7221 13.875 17.6506 15.0205 17.6506C16.1659 17.6506 17.0944 16.7221 17.0944 15.5766C17.0944 14.4312 16.1659 13.5027 15.0205 13.5027ZM12.1169 15.5766C12.1169 13.973 13.4169 12.6731 15.0205 12.6731C16.6241 12.6731 17.924 13.973 17.924 15.5766C17.924 17.1802 16.6241 18.4802 15.0205 18.4802C13.4169 18.4802 12.1169 17.1802 12.1169 15.5766Z" fill="#F28F45"/>
</svg>
