<svg width="44" height="44" viewBox="0 0 44 44" fill="none" xmlns="http://www.w3.org/2000/svg">
<rect width="44" height="44" rx="22" fill="#DCFAF8"/>
<path d="M27.2376 19.9049H29.3328C31.4281 19.9049 32.4757 18.8573 32.4757 16.762V14.6668C32.4757 12.5715 31.4281 11.5239 29.3328 11.5239H27.2376C25.1423 11.5239 24.0947 12.5715 24.0947 14.6668V16.762C24.0947 18.8573 25.1423 19.9049 27.2376 19.9049Z" stroke="#16DBCC" stroke-width="2.35714" stroke-miterlimit="10" stroke-linecap="round" stroke-linejoin="round"/>
<path d="M14.6663 32.4763H16.7615C18.8568 32.4763 19.9044 31.4287 19.9044 29.3334V27.2382C19.9044 25.143 18.8568 24.0953 16.7615 24.0953H14.6663C12.5711 24.0953 11.5234 25.143 11.5234 27.2382V29.3334C11.5234 31.4287 12.5711 32.4763 14.6663 32.4763Z" stroke="#16DBCC" stroke-width="2.35714" stroke-miterlimit="10" stroke-linecap="round" stroke-linejoin="round"/>
<path d="M15.7139 19.9049C18.0282 19.9049 19.9044 18.0287 19.9044 15.7144C19.9044 13.4001 18.0282 11.5239 15.7139 11.5239C13.3996 11.5239 11.5234 13.4001 11.5234 15.7144C11.5234 18.0287 13.3996 19.9049 15.7139 19.9049Z" stroke="#16DBCC" stroke-width="2.35714" stroke-miterlimit="10" stroke-linecap="round" stroke-linejoin="round"/>
<path d="M28.2852 32.4763C30.5995 32.4763 32.4757 30.6001 32.4757 28.2858C32.4757 25.9715 30.5995 24.0953 28.2852 24.0953C25.9709 24.0953 24.0947 25.9715 24.0947 28.2858C24.0947 30.6001 25.9709 32.4763 28.2852 32.4763Z" stroke="#16DBCC" stroke-width="2.35714" stroke-miterlimit="10" stroke-linecap="round" stroke-linejoin="round"/>
</svg>
