<svg width="28" height="21" viewBox="0 0 28 21" fill="none" xmlns="http://www.w3.org/2000/svg">
<g clip-path="url(#clip0_2648_29106)">
<mask id="mask0_2648_29106" style="mask-type:alpha" maskUnits="userSpaceOnUse" x="0" y="0" width="28" height="21">
<path d="M24.7 0.75H2.6C1.16406 0.75 0 1.91406 0 3.35V17.65C0 19.0859 1.16406 20.25 2.6 20.25H24.7C26.1359 20.25 27.3 19.0859 27.3 17.65V3.35C27.3 1.91406 26.1359 0.75 24.7 0.75Z" fill="white"/>
</mask>
<g mask="url(#mask0_2648_29106)">
<path d="M24.7 0.75H2.6C1.16406 0.75 0 1.91406 0 3.35V17.65C0 19.0859 1.16406 20.25 2.6 20.25H24.7C26.1359 20.25 27.3 19.0859 27.3 17.65V3.35C27.3 1.91406 26.1359 0.75 24.7 0.75Z" fill="#00773C"/>
<path fill-rule="evenodd" clip-rule="evenodd" d="M20.8 13.7503V12.4503H6.50001L9.10001 13.7503H16.9C16.9 14.4679 17.7736 15.0503 18.85 15.0503C19.9264 15.0503 20.8 14.4679 20.8 13.7503ZM11.349 5.82812C11.3334 5.82812 11.31 5.83593 11.2801 5.85413C11.2099 5.90093 11.0721 6.04523 11.0669 6.21163C11.063 6.30653 11.0448 6.30653 11.1059 6.36763C11.1501 6.43003 11.1969 6.42483 11.2853 6.37673C11.3373 6.33773 11.3542 6.31562 11.3724 6.25192C11.3932 6.14792 11.2593 6.30392 11.2424 6.18432C11.2125 6.07512 11.2983 6.02833 11.3789 5.92433C11.3815 5.87233 11.3815 5.83333 11.349 5.83073V5.82812ZM12.6529 5.83463C12.6269 5.83983 12.597 5.87363 12.5541 5.94903C12.5242 6.02963 12.3929 6.15183 12.4891 6.40403C12.5645 6.56393 12.597 6.82263 12.5619 7.11253C12.5073 7.19443 12.4969 7.22302 12.4254 7.30492C12.3266 7.41282 12.2174 7.38553 12.1368 7.34393C12.0588 7.29193 11.999 7.26593 11.9639 7.10213C11.9704 6.84213 11.986 6.41053 11.9379 6.31953C11.8677 6.17913 11.7507 6.22853 11.7013 6.27143C11.4634 6.49243 11.3451 6.86033 11.2723 7.15543C11.2073 7.36863 11.1358 7.30623 11.0864 7.22043C10.9655 7.10603 10.9564 6.21943 10.8108 6.36633C10.5768 7.03453 10.9447 7.76643 11.2008 7.69493C11.3828 7.77293 11.4998 7.42193 11.5752 7.03843C11.6272 6.93053 11.6662 6.91753 11.6922 6.97343C11.6857 7.48303 11.7312 7.59743 11.8612 7.75083C12.1524 7.97703 12.3942 7.77943 12.4137 7.76123L12.6412 7.53503C12.6932 7.48303 12.7582 7.47783 12.8297 7.52463C12.8999 7.58963 12.8908 7.69753 13.0377 7.77163C13.1651 7.82363 13.4316 7.78463 13.4927 7.67673C13.5772 7.53373 13.5967 7.48433 13.6357 7.42973C13.6955 7.35173 13.7982 7.38683 13.7982 7.41153C13.7891 7.45703 13.7293 7.50253 13.7696 7.58053C13.8411 7.63253 13.858 7.59873 13.8996 7.58703C14.0478 7.51682 14.1596 7.19442 14.1596 7.19442C14.1661 7.07482 14.0985 7.08392 14.0556 7.10862C13.9971 7.14372 13.9945 7.15543 13.9386 7.19053C13.8645 7.20093 13.7241 7.24903 13.6552 7.14113C13.5837 7.01113 13.5837 6.83173 13.5291 6.69913C13.5291 6.69133 13.4342 6.49502 13.5213 6.48332C13.5642 6.49112 13.6604 6.51583 13.6747 6.43653C13.7215 6.35853 13.5746 6.13753 13.4745 6.02833C13.3887 5.93343 13.2691 5.92173 13.1534 6.01793C13.0715 6.09333 13.0845 6.17653 13.0676 6.25583C13.0481 6.34683 13.052 6.45993 13.1456 6.58083C13.2262 6.73943 13.3731 6.94483 13.3237 7.23343C13.3237 7.23343 13.2392 7.37123 13.0897 7.35303C13.0247 7.34003 12.9233 7.31403 12.8687 6.91102C12.8297 6.60812 12.8791 6.18303 12.7517 5.98413C12.7218 5.91003 12.6971 5.83722 12.6555 5.84112L12.6529 5.83463ZM12.2395 5.86843C12.2005 5.87233 12.1576 5.91782 12.1225 6.00492C12.0926 6.07252 12.0549 6.42093 12.0614 6.42093C12.0354 6.52493 12.1693 6.56913 12.2304 6.43653C12.3214 6.18953 12.3214 6.08553 12.3266 5.98413C12.3136 5.90613 12.2785 5.86713 12.2395 5.86973V5.86843ZM13.7644 5.89443C13.7254 5.89963 13.6929 5.92303 13.6812 5.98283C13.6643 6.12063 13.6734 6.19732 13.6968 6.31302C13.7137 6.39102 13.8268 6.51843 13.8814 6.59383C14.1453 6.94873 14.4014 7.30492 14.6458 7.67282C14.6848 7.94842 14.7108 8.21623 14.7303 8.48403C14.7719 9.06903 14.7823 9.79703 14.7472 10.4145C14.8564 10.4184 15.0332 10.2364 15.0943 9.97253C15.1333 9.60333 15.0813 8.85453 15.0761 8.63613L15.0631 8.32673C15.3491 8.79473 15.6247 9.28873 15.8951 9.82953C15.9952 9.78273 15.9731 9.22503 15.9159 9.14703C15.6975 8.67903 15.3959 8.21623 15.301 8.03813C15.2659 7.97313 15.1476 7.79503 15.0085 7.58833C14.9825 7.29193 14.9539 7.04233 14.9357 6.96693C14.8902 6.65493 15.0631 7.00203 15.0397 6.82133C14.9825 6.50933 14.8109 6.29872 14.6081 6.01272C14.5431 5.92172 14.5431 5.90093 14.443 6.03613C14.3845 6.17263 14.3845 6.28703 14.404 6.39363C14.3754 6.35463 14.3429 6.31042 14.2961 6.25322L13.9646 5.97243C13.9191 5.93993 13.8307 5.89053 13.7644 5.89443V5.89443ZM18.2832 5.94253C18.2637 5.93993 18.2442 5.94903 18.2182 5.98413C18.1727 6.02313 18.1246 6.09722 18.1272 6.19212C18.1363 6.35462 18.1662 6.52233 18.1766 6.68613L18.1896 6.75113C18.1714 6.73033 18.1558 6.71213 18.1467 6.70433C17.8256 6.36633 18.2936 6.64713 18.0843 6.38843C17.9088 6.19343 17.8568 6.13363 17.7073 6.01663C17.6293 5.96983 17.5851 5.87623 17.5604 6.03483C17.55 6.17393 17.5396 6.33643 17.5474 6.45343C17.5474 6.51843 17.6163 6.64193 17.6748 6.71343C17.888 6.97733 18.1064 7.25683 18.3248 7.54803C18.3716 8.14213 18.3833 8.68683 18.4288 9.28223C18.4236 9.53703 18.3456 9.87503 18.2728 9.90623C18.2728 9.90623 18.1584 9.97123 18.083 9.89973C18.0271 9.87763 17.8074 9.53183 17.8074 9.53183C17.6943 9.42783 17.6189 9.45773 17.5396 9.53183C17.3186 9.74503 17.2172 10.1454 17.0677 10.421C17.0287 10.4821 16.9208 10.5354 16.7999 10.4158C16.4918 9.99463 16.6699 9.39533 16.6335 9.55003C16.3605 9.85943 16.4801 10.3716 16.5425 10.4821C16.6335 10.6641 16.7063 10.7811 16.8805 10.8682C17.043 10.9852 17.1665 10.9137 17.2367 10.8292C17.3979 10.6628 17.4005 10.2351 17.4759 10.1506C17.5279 9.99463 17.6618 10.0206 17.7268 10.0908C17.7918 10.1818 17.8646 10.2403 17.9569 10.2897C18.1077 10.4223 18.2871 10.4457 18.4639 10.3248C18.5848 10.2572 18.6641 10.1688 18.7343 9.99463C18.8123 9.79183 18.7733 8.72583 18.7564 8.13303L19.0944 8.62183C19.1412 9.14183 19.1633 9.65533 19.1464 10.1467C19.136 10.2442 19.4883 9.85553 19.4844 9.67093C19.4844 9.51103 19.487 9.36413 19.4844 9.22893C19.6573 9.50193 19.8224 9.77883 19.9784 10.0609C20.0759 10.0089 20.0434 9.45903 19.9823 9.38493C19.8185 9.10933 19.6079 8.81293 19.4454 8.58153C19.4129 8.29163 19.37 7.94972 19.3492 7.84442C19.3193 7.68062 19.2881 7.43493 19.2413 7.24123C19.2283 7.16713 19.1893 6.92532 19.2023 6.90322C19.2205 6.84732 19.2933 6.90323 19.3284 6.84083C19.3804 6.78233 19.1438 6.16483 19.0229 5.99063C18.98 5.91263 18.9007 5.93863 18.8045 6.06863C18.7135 6.15183 18.7473 6.34422 18.7811 6.52752C18.8695 6.99552 18.9501 7.46873 19.0125 7.94453C18.8955 7.76903 18.7525 7.55842 18.6121 7.35692L18.5939 7.26593C18.5939 7.25553 18.5757 6.88243 18.5588 6.79403C18.5549 6.75763 18.5458 6.74723 18.5848 6.75243C18.6238 6.78623 18.629 6.78753 18.6537 6.79923C18.6953 6.80443 18.7317 6.73683 18.7057 6.67313L18.3287 5.97892C18.3157 5.96202 18.2975 5.94642 18.2767 5.94382L18.2832 5.94253ZM6.62221 5.95553C6.55071 5.95293 6.47531 5.99453 6.50521 6.07903C6.48701 6.12453 6.64041 6.27793 6.66771 6.36243C6.68981 6.42353 6.64171 6.61593 6.69371 6.63543C6.73921 6.65493 6.80291 6.50023 6.82631 6.35853C6.83931 6.28053 6.83021 6.01273 6.64821 5.95813C6.63911 5.95553 6.63001 5.95552 6.61961 5.95422L6.62221 5.95553ZM19.9082 5.95553C19.8913 5.95813 19.8718 5.98152 19.8432 6.04652C19.7717 6.16353 19.747 6.37153 19.7756 6.55353C19.9446 7.71053 20.0746 8.83113 20.1006 9.85553C20.085 9.95433 20.0798 10.0063 20.0356 10.1285C19.9342 10.2585 19.8224 10.4197 19.7171 10.4977C19.6131 10.5757 19.3895 10.6511 19.3167 10.7083C19.0827 10.8409 19.0827 10.9943 19.2699 11.0008C19.5923 10.9618 19.9745 10.9358 20.2371 10.5393C20.3073 10.4288 20.3905 10.1272 20.3931 9.94133C20.4191 8.86233 20.3801 7.80283 20.2176 7.02153C20.2072 6.94353 20.1734 6.77062 20.1864 6.74852C20.2059 6.69392 20.3112 6.75243 20.3489 6.69133C20.4048 6.63413 20.0759 6.21423 19.9615 6.03483C19.9381 5.99063 19.9225 5.95293 19.9043 5.95683L19.9082 5.95553ZM16.5243 5.97373C16.5113 5.97633 16.4931 5.99713 16.4567 6.04523C16.3657 6.33903 16.3345 6.57823 16.3696 6.76283C16.6036 7.97183 16.8376 9.07033 16.8012 10.2208C16.9104 10.2208 17.0378 9.96993 17.0924 9.72033C17.1223 9.37583 17.0716 9.16653 17.0638 8.96633C17.0547 8.76353 16.835 7.12553 16.7908 6.97343C16.7362 6.68483 17.004 6.93443 16.9754 6.76803C16.8818 6.55483 16.6504 6.24803 16.5802 6.06213C16.5542 6.01273 16.549 5.96722 16.5282 5.97112L16.5243 5.97373ZM8.29011 5.99712C8.26411 6.00232 8.23421 6.02573 8.22511 6.06213C8.21861 6.08813 8.23551 6.13103 8.21211 6.14403C8.19911 6.15703 8.14971 6.14793 8.15231 6.07903C8.15231 6.05563 8.13541 6.03223 8.12631 6.01793C8.11591 6.01273 8.10941 6.01143 8.09121 6.01143C8.06911 6.01143 8.06911 6.01793 8.05741 6.03743C8.05221 6.05563 8.04441 6.07383 8.04441 6.09463C8.04181 6.12063 8.03141 6.12713 8.01451 6.13103C7.99371 6.13103 7.99761 6.13363 7.98201 6.12193C7.96901 6.11283 7.95861 6.10892 7.95861 6.09072C7.95861 6.07122 7.95341 6.03873 7.94821 6.02833C7.93911 6.01533 7.92481 6.01013 7.90921 6.00623C7.82341 6.00623 7.81821 6.10763 7.82211 6.14403C7.81561 6.15183 7.81301 6.32603 7.93001 6.37543C8.08601 6.45083 8.38241 6.41833 8.37201 6.16483C8.37201 6.14273 8.36551 6.06732 8.36291 6.04782C8.34731 6.00882 8.31741 5.99583 8.28881 5.99973L8.29011 5.99712ZM10.4039 5.99973C10.3493 6.00233 10.2999 6.01792 10.2609 6.03872C10.1569 6.13882 10.1309 6.29872 10.2141 6.39882C10.2921 6.43782 10.374 6.51582 10.3207 6.56132C10.0945 6.80182 9.50561 7.20612 9.47571 7.28022V7.28802H9.48091V7.29063C9.51081 7.31013 9.88001 7.31013 9.92031 7.29063H9.92291C10.0503 7.24253 10.6509 6.55613 10.6509 6.55613C10.6197 6.53013 10.5911 6.50933 10.5599 6.48203C10.5261 6.45343 10.53 6.42483 10.5599 6.39623C10.7081 6.31043 10.6613 6.11933 10.5833 6.03223C10.5183 6.00363 10.4585 5.99322 10.4039 5.99712V5.99973ZM15.9289 5.99973C15.9133 6.00363 15.8938 6.02572 15.8639 6.09072C15.7924 6.20772 15.7443 6.40923 15.7508 6.59773C15.9042 7.66373 15.951 8.59583 16.0524 9.66183C16.0602 9.76583 16.0446 9.91403 15.977 9.97383C15.7222 10.239 15.3569 10.564 14.9591 10.7148C14.9162 10.7629 15.0657 10.967 15.2581 10.967C15.5805 10.928 15.8639 10.7486 16.1291 10.2715C16.198 10.161 16.3215 9.92313 16.3241 9.73853C16.3501 8.65693 16.2721 7.81453 16.1083 7.03453C16.0992 6.95653 16.1057 6.86553 16.1187 6.84473C16.1395 6.81873 16.2097 6.84472 16.2487 6.78362C16.3033 6.72642 16.1005 6.25972 15.9861 6.08162C15.9627 6.03612 15.9497 5.99973 15.9289 6.00103V5.99973ZM7.36971 6.03483C7.32551 6.04003 7.28391 6.07383 7.26311 6.12583C7.25661 6.29483 7.25531 6.46383 7.27611 6.62243C7.35411 6.89933 7.37621 7.14242 7.41391 7.42452C7.42691 7.80413 7.19551 7.58833 7.20591 7.40113C7.25791 7.15673 7.24491 6.77323 7.19811 6.67573C7.15911 6.57823 7.11751 6.55483 7.02651 6.57173C6.95501 6.56653 6.76911 6.76673 6.71711 7.10473C6.71711 7.10473 6.67291 7.27633 6.65471 7.42973C6.62871 7.60263 6.51431 7.72613 6.43371 7.40633C6.36481 7.17233 6.32321 6.60033 6.20751 6.73293C6.17371 7.18013 6.13471 7.96793 6.51431 8.04853C6.97451 8.09273 6.71971 7.27113 6.88611 7.12163C6.91861 7.05013 6.97711 7.04883 6.98101 7.14113V7.83923C6.97581 8.06543 7.12401 8.13303 7.24101 8.17983C7.36191 8.17073 7.44121 8.17463 7.48801 8.29163L7.54651 9.50063C7.54651 9.50063 7.82471 9.57863 7.83771 8.82073C7.85071 8.37483 7.74671 8.00173 7.80781 7.91463C7.81041 7.82883 7.91961 7.82363 7.99501 7.86653C8.11591 7.95103 8.16921 8.05503 8.35641 8.01343C8.64241 7.93543 8.81141 7.79762 8.81531 7.57922C8.80231 7.37122 8.77631 7.16322 8.68531 6.95522C8.69831 6.91882 8.63331 6.82132 8.64631 6.78362C8.69571 6.86162 8.77371 6.85642 8.78931 6.78362C8.74251 6.62372 8.66711 6.47162 8.54491 6.40662C8.44481 6.31562 8.29791 6.33513 8.24331 6.51973C8.21731 6.73293 8.32131 6.98513 8.47731 7.19183C8.50851 7.27243 8.55531 7.40632 8.53451 7.52722C8.45261 7.57402 8.37071 7.55323 8.30051 7.48173C8.30051 7.48173 8.07561 7.31273 8.07561 7.27373C8.13671 6.89023 8.08861 6.84472 8.05611 6.74072C8.03271 6.59252 7.96251 6.54573 7.90661 6.44433C7.84941 6.38323 7.77271 6.38323 7.73761 6.44433C7.63621 6.61723 7.68301 6.99033 7.75581 7.15543C7.80781 7.30883 7.88841 7.40503 7.85071 7.40503C7.81951 7.48953 7.75451 7.47003 7.70771 7.36993C7.64271 7.16193 7.62711 6.85513 7.62711 6.71603C7.60761 6.54443 7.58551 6.17653 7.47111 6.08293C7.44121 6.04133 7.40611 6.02702 7.37101 6.03092L7.36971 6.03483ZM8.98431 6.03483C8.96221 6.04003 8.93621 6.05303 8.90631 6.06083C8.80881 6.09073 8.71781 6.17522 8.74641 6.33902C8.86341 7.04102 8.93751 7.57792 9.05321 8.27993C9.07011 8.36313 9.00121 8.47103 8.91281 8.46193C8.76201 8.35793 8.72431 8.14993 8.46691 8.16033C8.27971 8.16033 8.06651 8.36573 8.04051 8.56073C8.00931 8.71673 7.99891 8.88573 8.04051 9.02093C8.17051 9.17693 8.32911 9.16133 8.46691 9.12493C8.58001 9.07943 8.67491 8.96893 8.71391 8.99493C8.73991 9.03783 8.71131 9.40313 8.18091 9.68393C7.85331 9.83213 7.59331 9.86593 7.45291 9.60073C7.36711 9.43433 7.46071 8.79993 7.24751 8.94553C6.61571 10.5731 8.72561 10.7993 8.96091 9.01313C8.97651 8.96113 9.02201 8.91173 9.05581 8.92473C9.06881 8.93123 9.08181 8.95073 9.08701 8.98713C9.03761 10.6043 7.45421 10.7161 7.18641 10.2065C7.11881 10.0869 7.09931 9.81913 7.09281 9.66053C7.07981 9.56303 7.05641 9.50713 7.02781 9.48503C6.96281 9.43693 6.87701 9.56303 6.85881 9.78013C6.83281 9.95563 6.83931 10.0037 6.83931 10.1727C6.92511 11.4506 8.96221 10.9007 9.29371 9.84773C9.45751 9.30173 9.28981 8.88963 9.34571 8.83893L9.34961 8.83633H9.35351L9.36001 8.83373C9.56281 9.05213 9.84621 8.85973 9.90861 8.78563C9.93461 8.74663 10.0022 8.72063 10.049 8.77263C10.205 8.88443 10.4832 8.83113 10.5404 8.62963C10.5742 8.43463 10.6028 8.23443 10.6093 8.02513C10.5053 8.05763 10.4221 8.08103 10.3883 8.11613C10.3805 8.12523 10.3753 8.13563 10.3727 8.14603L10.3467 8.31893C10.3467 8.32543 10.3441 8.32932 10.3415 8.33192C10.3376 8.34102 10.3285 8.34753 10.3233 8.35143C10.2869 8.37093 10.2232 8.36053 10.2193 8.30723C10.1712 8.08623 9.96971 8.05763 9.84751 8.40213C9.76561 8.46713 9.61351 8.48013 9.60051 8.38133C9.62001 8.14993 9.52641 8.11873 9.34051 8.22793L9.16111 6.87593C9.23911 6.87203 9.30931 6.92793 9.38211 6.83953C9.30411 6.60033 9.14161 6.11413 9.04931 6.06733H9.04671L9.03371 6.05433C9.03371 6.05173 9.02981 6.05043 9.02721 6.04913L9.02201 6.04133C9.01681 6.04133 9.01161 6.03873 9.00901 6.03743C8.99991 6.03483 8.99211 6.03483 8.98301 6.03483H8.98431ZM15.2789 6.04002C15.1983 6.03742 15.1099 6.08813 15.1437 6.18953C15.1229 6.24543 15.3166 6.43263 15.3478 6.53403C15.4037 6.69003 15.3049 6.84213 15.3634 6.86423C15.418 6.88763 15.4934 6.70173 15.5194 6.52883C15.5532 6.38843 15.4544 6.10243 15.3114 6.04393L15.2789 6.04133V6.04002ZM10.374 6.21032C10.4104 6.20772 10.4546 6.24153 10.478 6.28833C10.5001 6.34033 10.4884 6.38842 10.452 6.39752C10.413 6.40662 10.3636 6.37412 10.3402 6.32212C10.3168 6.27012 10.3272 6.22203 10.3662 6.21293H10.374V6.21032ZM19.4701 6.44693C19.396 6.44433 19.3141 6.49893 19.3479 6.60943C19.3297 6.66923 19.5039 6.87203 19.5338 6.98383C19.5598 7.06183 19.4948 7.31662 19.5468 7.34002C19.5962 7.36602 19.6638 7.16323 19.6898 6.97603C19.7054 6.87203 19.63 6.51453 19.5013 6.45083C19.4922 6.44823 19.4818 6.44563 19.4714 6.44563L19.4701 6.44693ZM14.4391 6.57173C14.4482 6.60163 14.4547 6.63152 14.4586 6.66272C14.4742 6.72772 14.4872 6.79272 14.5002 6.86032C14.443 6.77972 14.3962 6.71473 14.3741 6.69133C14.2441 6.53533 14.3767 6.58993 14.4391 6.57173V6.57173ZM15.6 7.14113C15.5714 7.14633 15.5441 7.17103 15.535 7.21003C15.5272 7.23343 15.5454 7.27502 15.522 7.28802C15.509 7.30102 15.457 7.29323 15.4609 7.22303C15.4609 7.19963 15.444 7.17493 15.4349 7.16193C15.4245 7.15543 15.418 7.15283 15.3998 7.15283C15.3777 7.15283 15.3777 7.15933 15.366 7.17883C15.3608 7.19703 15.353 7.21522 15.353 7.23732C15.353 7.26332 15.3426 7.27113 15.3244 7.27633C15.3036 7.27633 15.3075 7.27633 15.2906 7.26723C15.2802 7.25423 15.2685 7.25163 15.2685 7.23343C15.2685 7.21393 15.2646 7.18403 15.2581 7.17103C15.249 7.15803 15.236 7.15413 15.2191 7.14893C15.1346 7.14893 15.1281 7.24773 15.1333 7.28413C15.1281 7.29193 15.1242 7.46873 15.2412 7.51813C15.3998 7.59223 15.6962 7.55712 15.6832 7.30492C15.6832 7.28282 15.6767 7.20743 15.6754 7.18793C15.6585 7.14893 15.6286 7.13593 15.6013 7.13983L15.6 7.14113ZM10.309 7.19313C10.2908 7.19313 10.2648 7.19833 10.2349 7.21653C10.0958 7.29193 10.0425 7.51553 10.1309 7.64553C10.2089 7.76253 10.3389 7.71963 10.3558 7.71963C10.4923 7.73783 10.5729 7.46483 10.5729 7.46483C10.5729 7.46483 10.5768 7.38683 10.4169 7.53243C10.3467 7.54543 10.3389 7.51943 10.3207 7.48043C10.3051 7.41153 10.3077 7.33743 10.3402 7.26853C10.3558 7.22563 10.3402 7.19833 10.309 7.19573V7.19313ZM17.7879 7.22822C17.7099 7.22432 17.628 7.27503 17.6059 7.38033C17.6059 7.44273 17.6345 7.47653 17.6293 7.53373C17.6228 7.56623 17.5903 7.58573 17.5097 7.54933C17.5227 7.53633 17.4577 7.44793 17.4577 7.44793C17.3966 7.40893 17.3147 7.44792 17.2601 7.48432C17.2302 7.53893 17.2081 7.63122 17.2419 7.72482C17.3303 7.88992 17.6358 8.17073 17.7814 8.17333C17.784 8.02513 17.7983 7.82753 17.8074 7.70533C17.81 7.65853 17.8204 7.60782 17.8659 7.59612C17.9101 7.58312 17.9868 7.64033 17.9868 7.59223C17.979 7.49863 17.9608 7.35823 17.9088 7.29323C17.8802 7.25423 17.8347 7.23082 17.7892 7.22822H17.7879ZM11.596 7.74433L11.5921 7.74823C11.5921 7.74823 11.5895 7.74823 11.5882 7.75083C11.5726 7.76383 11.5544 7.78983 11.5141 7.81583C11.4452 7.89383 11.4335 7.94973 11.4361 8.10573C11.4413 8.12263 11.5661 8.47363 11.674 8.71933C11.7468 8.97543 11.8131 9.26923 11.765 9.54613C11.596 9.91273 11.258 10.2416 10.9291 10.421C10.7601 10.473 10.6171 10.4548 10.5781 10.4184C10.4819 10.3534 10.4806 10.2364 10.4871 10.2182V10.2143C10.7627 10.0219 11.0786 9.86593 11.3256 9.34723C11.3984 9.14833 11.4218 9.02873 11.349 8.72323C11.3204 8.60623 11.284 8.51523 11.206 8.43203H11.2086C11.2554 8.40993 11.3776 8.49963 11.3971 8.44503C11.3672 8.29683 11.2671 8.10053 11.1566 7.99913C11.0578 7.90813 10.9486 7.89902 10.8602 7.98092C10.7588 8.03812 10.738 8.24092 10.7861 8.41772C10.8407 8.55032 10.9876 8.57373 11.0916 8.84283C11.0942 8.86103 11.1267 9.04433 11.0747 9.11973C11.0305 9.25233 10.4832 9.68393 10.4442 9.70993L10.4403 9.71253L10.4377 9.71513H10.4351H10.4325V9.71123C10.4299 9.70083 10.4325 9.67223 10.4325 9.62933C10.4286 9.54873 10.4624 9.36543 10.4585 9.33293V9.33033C10.2765 9.44733 10.2154 9.80483 10.1829 9.91143C9.72401 10.2273 9.20401 10.4626 8.90371 10.7824C8.74771 11.0294 9.98011 10.5042 10.1231 10.4405L10.127 10.4444C10.1556 10.4743 10.1569 10.5783 10.2388 10.6732C10.3688 10.8461 10.6392 10.9527 10.9044 10.8864C11.349 10.7265 11.6064 10.4236 11.8664 10.0869C11.9028 10.0349 11.9613 9.99073 12.0159 10.0323C12.194 10.4327 12.7114 10.7187 13.3783 10.7473C13.5343 10.5601 13.4602 10.4678 13.3978 10.4288C13.3783 10.4158 13.0663 10.2936 13.0169 10.1727C12.987 10.0609 13.0611 9.96083 13.2093 9.88673C13.6383 9.83473 14.0595 9.77623 14.4677 9.64493C14.4716 9.50713 14.5522 9.30303 14.6068 9.21333C14.6458 9.15223 14.6679 9.14573 14.677 9.13793V9.13533H14.6796V9.13143V9.11843L14.6094 9.07683L13.2405 9.07163C13.2236 9.06513 13.2119 9.05863 13.2041 9.05213L13.2015 9.04823C13.2015 9.04823 13.1989 9.04823 13.1989 9.04563C13.1989 9.04303 13.1963 9.04303 13.1963 9.04303V9.04433V9.04173V9.03913V9.03653L13.1989 9.03263C13.2054 9.02483 13.2223 9.01573 13.2418 9.00663C13.5694 8.96373 14.1492 8.86883 14.1882 8.31113C14.1817 8.01993 14.0634 7.83013 13.7072 7.77813C13.4446 7.79763 13.2574 8.05113 13.2873 8.32933C13.2743 8.40343 13.3133 8.55033 13.2353 8.56723C12.7335 8.61403 12.1849 8.92863 12.1667 9.15483H12.1641H12.1615H12.1589C12.1589 9.15743 12.1563 9.15743 12.155 9.15743H12.1498H12.1472H12.142C12.1095 9.14703 12.0679 9.09243 12.0744 9.01833C12.0549 8.62833 11.9275 8.18633 11.7299 7.84833C11.6584 7.77683 11.6259 7.74823 11.6077 7.74433H11.6038H11.5999H11.5973H11.596ZM12.9064 7.94973C12.8804 7.95493 12.8505 7.97833 12.8414 8.01733C12.8349 8.04333 12.8544 8.08493 12.831 8.09793C12.818 8.11093 12.766 8.10313 12.7686 8.03293C12.7686 8.01083 12.7517 7.98613 12.7426 7.97183C12.7322 7.96533 12.7257 7.96402 12.7088 7.96402C12.6867 7.96402 12.6854 7.96923 12.6737 7.98743C12.6672 8.00563 12.6607 8.02643 12.6607 8.04593C12.6581 8.07193 12.6477 8.07973 12.6308 8.08233C12.61 8.08233 12.6152 8.08623 12.5983 8.07583C12.5879 8.06543 12.5749 8.06023 12.5749 8.04203C12.5749 8.02253 12.571 7.99003 12.5658 7.97703C12.5567 7.96793 12.5424 7.96403 12.5268 7.95883C12.4397 7.95883 12.4358 8.05633 12.4397 8.09403C12.4332 8.10053 12.4293 8.27603 12.5463 8.32543C12.7023 8.40083 13.0793 8.35663 12.9883 8.11353C12.9883 8.09143 12.9818 8.01603 12.9805 7.99653C12.9636 7.95753 12.9337 7.94453 12.9051 7.94843L12.9064 7.94973ZM18.1909 8.16683H18.1779C18.1779 8.16683 17.4473 8.68683 17.4304 8.70503C17.3576 8.77003 17.394 8.99493 17.4304 8.96893C17.4824 8.98843 18.2169 8.49053 18.2026 8.43203C18.2351 8.43463 18.2507 8.17593 18.1896 8.16553L18.1909 8.16683ZM13.5967 8.24483C13.6253 8.24093 13.6643 8.25133 13.7007 8.27083C13.7566 8.30463 13.7917 8.35143 13.7852 8.38783V8.39303C13.7826 8.39303 13.7826 8.39303 13.7826 8.39563V8.39823C13.7826 8.39823 13.78 8.39823 13.78 8.40083C13.78 8.40343 13.7761 8.40603 13.7735 8.40863C13.7475 8.43463 13.6877 8.42943 13.6305 8.39563C13.5759 8.36573 13.5434 8.31763 13.546 8.28383V8.27993L13.5525 8.26693C13.5525 8.26693 13.5525 8.26433 13.5551 8.26303L13.5616 8.25522C13.5707 8.24872 13.5824 8.24223 13.5967 8.24223V8.24483ZM7.20331 8.37482C6.82631 8.38262 6.27121 8.87143 6.25691 9.14183L7.45291 8.56983C7.38791 8.47103 7.44901 8.38262 7.20331 8.37482V8.37482ZM8.42921 8.54383C8.46561 8.54643 8.50461 8.56463 8.52541 8.61663C8.54361 8.66473 8.52541 8.71413 8.50331 8.73883V8.74272C8.48511 8.76352 8.43051 8.75573 8.39021 8.75573C8.34211 8.75313 8.31871 8.74533 8.29011 8.70633C8.27451 8.66083 8.31611 8.61793 8.33561 8.58673L8.34471 8.57373C8.35771 8.56073 8.38371 8.55033 8.40971 8.54773L8.42661 8.54513L8.42921 8.54383ZM18.0492 8.69593C17.9803 8.70373 17.9166 8.76743 17.9452 8.86883C17.927 8.92863 18.0362 9.13793 18.0661 9.24843C18.0921 9.32643 18.0323 9.55133 18.0856 9.57343C18.135 9.59943 18.2637 9.44343 18.2598 9.24323C18.2728 9.13923 18.2234 8.76222 18.0947 8.69982C18.0791 8.69592 18.0635 8.69463 18.0479 8.69593H18.0492ZM9.88001 9.06513C9.82021 9.06903 9.76691 9.10023 9.79161 9.18473C9.78771 9.24453 9.96061 9.31863 9.96971 9.45773C9.99311 9.51753 9.93071 9.70473 9.98271 9.72033C10.0295 9.73983 10.0945 9.59033 10.1192 9.45513C10.1322 9.37973 10.0594 9.11713 9.93721 9.06903C9.91771 9.06383 9.89821 9.06253 9.87871 9.06383L9.88001 9.06513ZM12.324 9.39793H12.3396C12.493 9.43953 12.7166 9.44473 12.9116 9.46293C13.0715 9.47593 13.1495 9.59813 13.0026 9.65143C12.8544 9.70083 12.7127 9.74243 12.7127 9.95303C12.7309 10.057 12.7257 10.1116 12.7101 10.135C12.7101 10.1389 12.7062 10.1415 12.7049 10.1428C12.7049 10.1428 12.7049 10.1454 12.7023 10.1454V10.148H12.6984L12.6893 10.1519H12.6828C12.6477 10.1584 12.597 10.1259 12.5593 10.1051C12.4683 10.0401 12.2148 9.88413 12.1784 9.54613C12.1732 9.46813 12.2304 9.40313 12.3214 9.39663L12.324 9.39793ZM6.35181 9.65793C6.34271 9.65793 6.32581 9.68653 6.29981 9.71903C6.07361 10.0765 6.05281 10.6108 6.17761 10.772C6.24261 10.8461 6.35181 10.8799 6.43241 10.8565C6.57541 10.7954 6.63651 10.5081 6.60141 10.4041C6.55591 10.33 6.51821 10.3183 6.47141 10.3807C6.37131 10.5822 6.32841 10.4431 6.32191 10.3287C6.30631 10.1168 6.32711 9.91923 6.35051 9.76323C6.36351 9.68523 6.36351 9.65533 6.35051 9.65533L6.35181 9.65793ZM14.0179 10.1285C14.001 10.1285 13.9841 10.1311 13.9659 10.1415C13.962 10.1415 13.8047 10.2455 13.754 10.3209C13.7228 10.3443 13.728 10.3638 13.7358 10.4054C13.7592 10.4613 13.8008 10.4444 13.8502 10.4184C13.9152 10.408 13.9451 10.4509 13.9412 10.5276C13.9113 10.6251 13.9542 10.6602 13.9542 10.6667C13.9542 10.6719 14.0153 10.7252 14.0881 10.6836C14.2402 10.6251 14.3351 10.5666 14.5496 10.5211C14.6055 10.5211 14.6016 10.3703 14.5132 10.3651C14.3962 10.3703 14.2922 10.3781 14.1752 10.4691C14.1037 10.4847 14.092 10.4405 14.0751 10.4015C14.0569 10.3053 14.1167 10.2377 14.1037 10.1649C14.1063 10.1688 14.0673 10.1337 14.0166 10.1311L14.0179 10.1285ZM18.9267 10.3105L18.8227 10.3209C18.7759 10.33 18.7603 10.3508 18.7512 10.408C18.7551 10.4925 18.8071 10.4886 18.8617 10.5224C18.8929 10.5614 18.9137 10.5978 18.8591 10.6654C18.8071 10.7109 18.772 10.7369 18.72 10.7824C18.6979 10.824 18.681 10.8864 18.7564 10.9072C18.8929 10.9462 19.2088 10.7408 19.2088 10.7382C19.2608 10.6992 19.2426 10.6251 19.2387 10.6251C19.2075 10.5913 19.1399 10.6121 19.0957 10.6056C19.0736 10.6056 19.0047 10.5952 19.0359 10.5328C19.0645 10.4938 19.0749 10.4717 19.0944 10.4236C19.1139 10.3768 19.0944 10.3456 19.019 10.3196C18.98 10.3118 18.954 10.3092 18.9241 10.3105H18.9267ZM17.0378 15.3285C17.3888 15.3454 17.7164 15.3324 18.0648 15.3493C18.122 15.3961 18.0947 15.5053 18.0583 15.5235L18.0518 15.5261H18.0479H18.0427L17.7489 15.5183V15.5014C17.7203 15.4208 17.5253 15.426 17.4785 15.4884V15.4923C17.4759 15.4923 17.4746 15.4962 17.4746 15.4975L17.472 15.504V15.5196C17.316 15.5391 17.1795 15.5144 17.0261 15.5092C16.9806 15.4533 16.9871 15.3532 17.0391 15.3272L17.0378 15.3285Z" fill="white"/>
<path d="M24.6999 1.40039H2.5999C1.52295 1.40039 0.649902 2.27344 0.649902 3.35039V17.6504C0.649902 18.7273 1.52295 19.6004 2.5999 19.6004H24.6999C25.7769 19.6004 26.6499 18.7273 26.6499 17.6504V3.35039C26.6499 2.27344 25.7769 1.40039 24.6999 1.40039Z" stroke="black" stroke-opacity="0.1" stroke-width="1.3"/>
</g>
</g>
<defs>
<clipPath id="clip0_2648_29106">
<rect width="27.3" height="19.5" fill="white" transform="translate(0 0.75)"/>
</clipPath>
</defs>
</svg>
