<svg width="30" height="31" viewBox="0 0 30 31" fill="none" xmlns="http://www.w3.org/2000/svg">
<rect x="0.0957031" y="0.644043" width="29.8651" height="29.8651" rx="6.63668" fill="#FF7A00" fill-opacity="0.1"/>
<path fill-rule="evenodd" clip-rule="evenodd" d="M21.2738 11.4065C21.5101 11.501 21.665 11.7297 21.665 11.9842V19.1696C21.665 19.424 21.5101 19.6528 21.2738 19.7473L15.2594 22.1531C15.111 22.2124 14.9455 22.2124 14.7972 22.1531L8.78272 19.7473C8.5465 19.6528 8.3916 19.424 8.3916 19.1696V11.9842C8.3916 11.7297 8.5465 11.501 8.78272 11.4065L14.5661 9.09308C14.5687 9.09206 14.5712 9.09104 14.5738 9.09004L14.7972 9.00068C14.9455 8.94134 15.111 8.94134 15.2594 9.00068L15.4828 9.09005C15.4853 9.09105 15.4879 9.09206 15.4904 9.09308L21.2738 11.4065ZM17.0223 10.5994L11.9173 12.6414L9.92329 11.8437L9.22119 12.1246V12.4564L14.6135 14.6133V21.1861L15.0283 21.352L15.4431 21.1861V14.6133L20.8354 12.4564V12.1246L20.1333 11.8437L15.0283 13.8857L13.0342 13.0881L18.1392 11.0461L17.0223 10.5994Z" fill="#F28F45"/>
</svg>
