<svg width="24" height="25" viewBox="0 0 24 25" fill="none" xmlns="http://www.w3.org/2000/svg">
<path d="M3 9.50391V15.2739C3 17.3939 3 17.3939 5 18.7439L10.5 21.9239C11.33 22.4039 12.68 22.4039 13.5 21.9239L19 18.7439C21 17.3939 21 17.3939 21 15.2839V9.50391C21 7.39391 21 7.39391 19 6.04391L13.5 2.86391C12.68 2.38391 11.33 2.38391 10.5 2.86391L5 6.04391C3 7.39391 3 7.39391 3 9.50391Z" stroke="white" stroke-width="1.5" stroke-linecap="round" stroke-linejoin="round"/>
<path d="M12 15.3939C13.6569 15.3939 15 14.0508 15 12.3939C15 10.7371 13.6569 9.39392 12 9.39392C10.3431 9.39392 9 10.7371 9 12.3939C9 14.0508 10.3431 15.3939 12 15.3939Z" stroke="white" stroke-width="1.5" stroke-linecap="round" stroke-linejoin="round"/>
</svg>
