<svg width="60" height="60" viewBox="0 0 60 60" fill="none" xmlns="http://www.w3.org/2000/svg">
<path opacity="0.21" fill-rule="evenodd" clip-rule="evenodd" d="M0 30V37C0 49.7025 10.2975 60 23 60H30H37C49.7025 60 60 49.7025 60 37V30V23C60 10.2975 49.7025 0 37 0H30H23C10.2975 0 0 10.2975 0 23V30Z" fill="#8280FF"/>
<path d="M23.3335 28.3199V32.5866" stroke="#8280FF" stroke-width="1.5" stroke-linecap="round" stroke-linejoin="round"/>
<path d="M30 26V34.9067" stroke="#8280FF" stroke-width="1.5" stroke-linecap="round" stroke-linejoin="round"/>
<path d="M36.6665 28.3199V32.5866" stroke="#8280FF" stroke-width="1.5" stroke-linecap="round" stroke-linejoin="round"/>
<path d="M26.0003 43.3333H34.0003C40.667 43.3333 43.3337 40.6666 43.3337 34V26C43.3337 19.3333 40.667 16.6666 34.0003 16.6666H26.0003C19.3337 16.6666 16.667 19.3333 16.667 26V34C16.667 40.6666 19.3337 43.3333 26.0003 43.3333Z" stroke="#8280FF" stroke-width="1.5" stroke-linecap="round" stroke-linejoin="round"/>
</svg>
