<svg width="25" height="24" viewBox="0 0 25 24" fill="none" xmlns="http://www.w3.org/2000/svg">
<path d="M21.2502 6.73046C21.2302 6.73046 21.2002 6.73046 21.1702 6.73046C15.8802 6.20046 10.6002 6.00046 5.37016 6.53046L3.33016 6.73046C2.91016 6.77046 2.54016 6.47046 2.50016 6.05046C2.46016 5.63046 2.76016 5.27046 3.17016 5.23046L5.21016 5.03046C10.5302 4.49046 15.9202 4.70046 21.3202 5.23046C21.7302 5.27046 22.0302 5.64046 21.9902 6.05046C21.9602 6.44046 21.6302 6.73046 21.2502 6.73046Z" fill="#FC5555"/>
<path d="M8.74977 5.72C8.70977 5.72 8.66977 5.72 8.61977 5.71C8.21977 5.64 7.93977 5.25 8.00977 4.85L8.22977 3.54C8.38977 2.58 8.60977 1.25 10.9398 1.25H13.5598C15.8998 1.25 16.1198 2.63 16.2698 3.55L16.4898 4.85C16.5598 5.26 16.2798 5.65 15.8798 5.71C15.4698 5.78 15.0798 5.5 15.0198 5.1L14.7998 3.8C14.6598 2.93 14.6298 2.76 13.5698 2.76H10.9498C9.88977 2.76 9.86977 2.9 9.71977 3.79L9.48977 5.09C9.42977 5.46 9.10977 5.72 8.74977 5.72Z" fill="#FC5555"/>
<path d="M15.4599 22.7496H9.0399C5.5499 22.7496 5.4099 20.8196 5.2999 19.2596L4.6499 9.18959C4.6199 8.77959 4.9399 8.41959 5.3499 8.38959C5.7699 8.36959 6.1199 8.67959 6.1499 9.08959L6.7999 19.1596C6.9099 20.6796 6.9499 21.2496 9.0399 21.2496H15.4599C17.5599 21.2496 17.5999 20.6796 17.6999 19.1596L18.3499 9.08959C18.3799 8.67959 18.7399 8.36959 19.1499 8.38959C19.5599 8.41959 19.8799 8.76959 19.8499 9.18959L19.1999 19.2596C19.0899 20.8196 18.9499 22.7496 15.4599 22.7496Z" fill="#FC5555"/>
<path d="M13.9101 17.25H10.5801C10.1701 17.25 9.83008 16.91 9.83008 16.5C9.83008 16.09 10.1701 15.75 10.5801 15.75H13.9101C14.3201 15.75 14.6601 16.09 14.6601 16.5C14.6601 16.91 14.3201 17.25 13.9101 17.25Z" fill="#FC5555"/>
<path d="M14.75 13.25H9.75C9.34 13.25 9 12.91 9 12.5C9 12.09 9.34 11.75 9.75 11.75H14.75C15.16 11.75 15.5 12.09 15.5 12.5C15.5 12.91 15.16 13.25 14.75 13.25Z" fill="#FC5555"/>
</svg>
